<svg width="13" height="24" viewBox="0 0 13 24" fill="none" xmlns="http://www.w3.org/2000/svg">
    <path d="M2.94839 11.968C3.34119 12.3642 3.67337 12.6955 4.00152 13.031C6.86388 15.9517 9.72543 18.8737 12.5882 21.794C12.96 22.1732 13.0986 22.6172 12.9272 23.1297C12.7603 23.6298 12.4011 23.9191 11.8891 23.9888C11.4894 24.0429 11.1483 23.8984 10.865 23.6096C10.2362 22.9683 9.60783 22.3267 8.97903 21.6846C6.12677 18.7726 3.27411 15.8609 0.421847 12.9489C-0.139875 12.3753 -0.141086 11.6255 0.421041 11.0515C3.892 7.50732 7.36296 3.9631 10.8351 0.420124C11.4449 -0.202146 12.3494 -0.122091 12.7987 0.586835C13.097 1.05725 13.0578 1.65476 12.6989 2.0802C12.6419 2.14788 12.5793 2.2106 12.5175 2.27373C9.40375 5.45358 6.29003 8.63343 3.17469 11.8116C3.11852 11.869 3.04133 11.9045 2.94798 11.968H2.94839Z" fill="#535353"/>
</svg>
