<svg width="34" height="34" viewBox="0 0 34 34" fill="none" xmlns="http://www.w3.org/2000/svg">
    <ellipse cx="17.0004" cy="17" rx="17.0004" ry="17" fill="url(#paint0_linear_42_519)"/>
    <path d="M14.2555 18.1297L12.316 13.2373L10.8308 13.2373L8.90873 18.1297L6.96922 13.2373L4.66278 13.2373L8.05255 21.8688L9.53776 21.8688L11.5821 16.7318L13.6265 21.8688L15.1117 21.8688L18.484 13.2373L16.195 13.2373L14.2555 18.1297Z" fill="white"/>
    <path d="M24.5294 12.9052C23.5334 12.9052 22.6423 13.2022 21.891 13.6915L21.891 9.1311L19.7767 9.1311L19.7767 17.5355C19.7767 20.0865 21.9084 22.1482 24.5119 22.1482C27.1154 22.1482 29.2821 20.1039 29.2821 17.518C29.2821 14.932 27.1853 12.9052 24.5294 12.9052ZM24.5294 20.1039C23.0966 20.1039 21.891 18.9857 21.891 17.5355C21.891 16.0852 23.0267 14.9844 24.5294 14.9844C26.0321 14.9844 27.1853 16.1202 27.1853 17.5355C27.1853 18.9507 25.9797 20.1039 24.5294 20.1039Z" fill="white"/>
    <defs>
        <linearGradient id="paint0_linear_42_519" x1="17.0004" y1="0" x2="34.0001" y2="36.2346" gradientUnits="userSpaceOnUse">
            <stop stop-color="#E313BF"/>
            <stop offset="1" stop-color="#7D0A69"/>
        </linearGradient>
    </defs>
</svg>
