<svg viewBox="0 0 315 315" fill="none" xmlns="http://www.w3.org/2000/svg">
    <path d="M171.502 0.608356L159.056 146.586L187.825 2.9311L160.189 146.808L203.816 6.94736L161.292 147.148L219.299 12.6131L162.353 147.6L234.106 19.8663L163.362 148.162L248.073 28.6275L164.306 148.825L261.048 38.8007L165.176 149.584L272.888 50.2744L165.962 150.429L283.464 62.9228L166.655 151.352L292.66 76.6076L167.247 152.343L300.376 91.1786L167.733 153.389L306.526 106.476L168.107 154.481L311.043 122.333L168.365 155.606L313.878 138.575L168.503 156.752L315 155.024L168.522 157.906L314.396 171.501L168.419 159.056L312.073 187.824L168.197 160.188L308.057 203.815L167.858 161.291L302.391 219.299L167.405 162.353L295.138 234.105L166.843 163.361L286.377 248.072L166.18 164.306L276.204 261.047L165.421 165.175L264.73 272.888L164.576 165.961L252.082 283.464L163.653 166.654L238.397 292.66L162.663 167.247L223.826 300.376L161.616 167.733L208.529 306.526L160.524 168.107L192.672 311.043L159.399 168.364L176.43 313.878L158.253 168.503L159.981 315L157.099 168.521L143.504 314.396L155.949 168.419L127.181 312.073L154.817 168.196L111.19 308.057L153.714 167.857L95.7066 302.391L152.652 167.404L80.9001 295.138L151.644 166.843L66.9329 286.377L150.7 166.179L53.958 276.204L149.83 165.421L42.1176 264.73L149.044 164.575L31.5414 252.082L148.351 163.652L22.3452 238.397L147.758 162.662L14.6298 223.826L147.272 161.615L8.4798 208.528L146.899 160.523L3.96252 192.672L146.641 159.398L1.12744 176.43L146.502 158.252L0.00564543 159.98L146.484 157.098L0.609432 143.504L146.587 155.949L2.93216 127.18L146.809 154.816L6.94842 111.189L147.148 153.713L12.6142 95.7058L147.601 152.652L19.8673 80.8993L148.162 151.643L28.6285 66.9321L148.826 150.699L38.8016 53.9571L149.584 149.829L50.2753 42.1167L150.43 149.044L62.9237 31.5404L151.353 148.351L76.6084 22.3442L152.343 147.758L91.1793 14.6288L153.39 147.272L106.477 8.47875L154.482 146.898L122.334 3.96145L155.607 146.64L138.576 1.12637L156.753 146.502L155.025 0.00456752L157.907 146.483L171.502 0.608356Z" fill="url(#paint0_radial_14_865)"/>
    <path d="M165.891 0.208569L158.665 146.538L182.287 1.94704L159.805 146.719L198.411 5.38982L160.92 147.019L214.087 10.4992L161.997 147.433L229.143 17.2191L163.025 147.958L243.414 25.476L163.992 148.588L256.743 35.1794L164.888 149.315L268.986 46.2231L165.703 150.132L280.007 58.4859L166.429 151.029L289.686 71.8335L167.057 151.998L297.917 86.1198L167.58 153.027L304.609 101.188L167.992 154.105L309.689 116.873L168.29 155.22L313.103 133.004L168.469 156.36L314.811 149.403L168.529 157.512L314.796 165.89L168.467 158.665L313.057 182.286L168.286 159.805L309.615 198.41L167.986 160.919L304.505 214.086L167.571 161.996L297.785 229.142L167.047 163.024L289.529 243.413L166.417 163.992L279.825 256.743L165.69 164.888L268.782 268.986L164.873 165.703L256.519 280.007L163.976 166.429L243.171 289.686L163.007 167.056L228.885 297.917L161.978 167.579L213.817 304.609L160.9 167.992L198.131 309.69L159.785 168.29L182.001 313.103L158.645 168.469L165.602 314.811L157.493 168.528L149.115 314.796L156.34 168.467L132.719 313.057L155.2 168.285L116.595 309.615L154.086 167.986L100.919 304.505L153.009 167.571L85.8628 297.785L151.981 167.046L71.5918 289.529L151.013 166.417L58.2619 279.825L150.117 165.69L46.0194 268.781L149.302 164.873L34.9983 256.519L148.576 163.975L25.3194 243.171L147.949 163.007L17.0887 228.885L147.426 161.978L10.3965 213.816L147.013 160.9L5.31591 198.131L146.715 159.785L1.90276 182.001L146.536 158.645L0.194379 165.602L146.477 157.492L0.209516 149.114L146.538 156.34L1.94798 132.718L146.72 155.2L5.39075 116.594L147.019 154.085L10.5001 100.918L147.434 153.008L17.22 85.8622L147.959 151.98L25.4769 71.591L148.588 151.013L35.1803 58.2612L149.315 150.117L46.2239 46.0186L150.132 149.301L58.4866 34.9975L151.03 148.576L71.8342 25.3185L151.998 147.948L86.1205 17.0878L153.027 147.425L101.189 10.3955L154.105 147.013L116.874 5.31498L155.22 146.715L133.004 1.90181L156.36 146.535L149.403 0.193432L157.513 146.476L165.891 0.208569Z" fill="url(#paint1_radial_14_865)"/>
    <path d="M160.586 0L158.28 146.489L177.031 1.18677L159.425 146.632L193.262 4.086L160.549 146.894L209.1 8.66592L161.639 147.273L224.374 14.8763L162.684 147.763L238.914 22.6492L163.672 148.359L252.562 31.8994L164.592 149.056L265.169 42.5256L165.435 149.845L276.596 54.4113L166.19 150.718L286.717 67.4263L166.85 151.665L295.423 81.4281L167.407 152.675L302.618 96.2631L167.856 153.739L308.222 111.769L168.191 154.843L312.175 127.776L168.408 155.977L314.434 144.108L168.506 157.126L314.972 160.587L168.484 158.28L313.786 177.032L168.341 159.426L310.886 193.262L168.078 160.55L306.306 209.101L167.7 161.64L300.096 224.374L167.21 162.685L292.323 238.915L166.614 163.673L283.073 252.563L165.917 164.593L272.447 265.17L165.128 165.435L260.561 276.596L164.255 166.191L247.546 286.718L163.308 166.85L233.545 295.424L162.298 167.408L218.71 302.619L161.234 167.856L203.204 308.223L160.13 168.191L187.197 312.176L158.996 168.409L170.865 314.435L157.846 168.507L154.386 314.973L156.693 168.484L137.941 313.787L155.547 168.341L121.711 310.887L154.423 168.079L105.872 306.307L153.333 167.701L90.5987 300.097L152.288 167.211L76.0584 292.324L151.3 166.614L62.4101 283.074L150.38 165.917L49.8036 272.448L149.538 165.128L38.3768 260.562L148.782 164.256L28.255 247.547L148.122 163.309L19.5491 233.545L147.565 162.298L12.3545 218.71L147.117 161.235L6.74996 203.204L146.782 160.13L2.79692 187.198L146.564 158.997L0.538678 170.865L146.466 157.847L0 154.387L146.489 156.693L1.18676 137.942L146.632 155.548L4.08599 121.711L146.894 154.424L8.66589 105.872L147.272 153.333L14.8763 90.5991L147.762 152.289L22.6492 76.0586L148.359 151.301L31.8993 62.4103L149.055 150.38L42.5255 49.8037L149.844 149.538L54.4111 38.3769L150.717 148.783L67.4261 28.2551L151.664 148.123L81.4278 19.5492L152.675 147.566L96.2628 12.3545L153.738 147.117L111.769 6.74998L154.843 146.782L127.775 2.79693L155.976 146.564L144.107 0.53868L157.126 146.466L160.586 0Z" fill="url(#paint2_radial_14_865)"/>
    <defs>
        <radialGradient id="paint0_radial_14_865" cx="0" cy="0" r="1" gradientUnits="userSpaceOnUse" gradientTransform="translate(157.486 157.487) rotate(91.1277) scale(157.517 157.517)">
            <stop stop-color="#01ABD8"/>
            <stop offset="1" stop-color="#01ABD8" stop-opacity="0"/>
        </radialGradient>
        <radialGradient id="paint1_radial_14_865" cx="0" cy="0" r="1" gradientUnits="userSpaceOnUse" gradientTransform="translate(157.486 157.487) rotate(91.1277) scale(157.517 157.517)">
            <stop stop-color="#01ABD8"/>
            <stop offset="1" stop-color="#01ABD8" stop-opacity="0"/>
        </radialGradient>
        <radialGradient id="paint2_radial_14_865" cx="0" cy="0" r="1" gradientUnits="userSpaceOnUse" gradientTransform="translate(157.486 157.487) rotate(91.1277) scale(157.517 157.517)">
            <stop stop-color="#01ABD8"/>
            <stop offset="1" stop-color="#01ABD8" stop-opacity="0"/>
        </radialGradient>
    </defs>
</svg>
