<svg width="34" height="34" viewBox="0 0 34 34" fill="none" xmlns="http://www.w3.org/2000/svg">
    <path d="M17 33.9999C26.3887 33.9999 33.9997 26.3889 33.9997 17.0002C33.9997 7.61152 26.3887 0.000488281 17 0.000488281C7.61129 0.000488281 0.000244141 7.61152 0.000244141 17.0002C0.000244141 26.3889 7.61129 33.9999 17 33.9999Z" fill="#FFD805"/>
    <path d="M17.6212 0.0126098C27.8494 0.474472 35.428 9.68667 33.7724 19.8428C33.6765 20.4305 33.5298 21.0121 33.3851 21.5894L29.1476 22.6262L31.2725 13.6412L25.87 10.0178L19.2078 18.1761L21.8825 7.37003L14.365 2.33292L1.15482 22.9915C0.885398 22.628 0.759547 22.0879 0.637361 21.6505C-2.33604 11.0307 5.46065 0.455533 16.4018 0.0126098C16.7885 -0.00327439 17.2357 -0.00510717 17.6212 0.0126098Z" fill="#FF5326"/>
    <path d="M11.7693 26.9509L18.2317 28.0206L24.2072 20.5533L22.1954 29.025L30.3666 27.5319C28.5827 29.7978 26.205 31.6031 23.5346 32.7114C17.5371 35.2009 10.3984 34.0365 5.63434 29.6335L5.63007 29.5119L14.5099 15.7385L11.7687 26.9509H11.7693Z" fill="#FF5326"/>
</svg>
