<svg viewBox="0 0 300 45" fill="none" xmlns="http://www.w3.org/2000/svg">
    <path d="M196.76 44.096C195.768 44.096 194.931 43.8773 194.248 43.44C193.565 42.992 193.048 42.352 192.696 41.52C192.344 40.6773 192.168 39.6693 192.168 38.496C192.168 37.2267 192.381 36.1653 192.808 35.312C193.245 34.448 193.848 33.7973 194.616 33.36C195.384 32.9227 196.275 32.704 197.288 32.704C197.789 32.704 198.269 32.752 198.728 32.848C199.187 32.944 199.592 33.0987 199.944 33.312L199.48 34.24C199.192 34.048 198.861 33.9147 198.488 33.84C198.115 33.7547 197.72 33.712 197.304 33.712C196.099 33.712 195.133 34.096 194.408 34.864C193.693 35.632 193.336 36.7787 193.336 38.304C193.336 38.5387 193.347 38.832 193.368 39.184C193.4 39.5253 193.464 39.8667 193.56 40.208L193.16 39.904C193.277 39.3493 193.507 38.88 193.848 38.496C194.189 38.1013 194.616 37.8027 195.128 37.6C195.64 37.3973 196.2 37.296 196.808 37.296C197.555 37.296 198.211 37.4347 198.776 37.712C199.341 37.9893 199.784 38.3787 200.104 38.88C200.424 39.3813 200.584 39.9733 200.584 40.656C200.584 41.3493 200.419 41.9573 200.088 42.48C199.757 42.992 199.299 43.392 198.712 43.68C198.136 43.9573 197.485 44.096 196.76 44.096ZM196.712 43.12C197.245 43.12 197.715 43.024 198.12 42.832C198.536 42.6293 198.861 42.3467 199.096 41.984C199.331 41.6107 199.448 41.1787 199.448 40.688C199.448 39.952 199.192 39.3653 198.68 38.928C198.179 38.4907 197.496 38.272 196.632 38.272C196.056 38.272 195.555 38.3787 195.128 38.592C194.701 38.8053 194.365 39.0987 194.12 39.472C193.875 39.8347 193.752 40.2507 193.752 40.72C193.752 41.1253 193.864 41.5147 194.088 41.888C194.312 42.2507 194.643 42.5493 195.08 42.784C195.528 43.008 196.072 43.12 196.712 43.12ZM201.726 41.056V40.224L207.662 32.8H208.942L203.054 40.224L202.43 40.032H211.438V41.056H201.726ZM208.046 44V41.056L208.078 40.032V37.44H209.198V44H208.046Z" fill="white"/>
    <path d="M218 23H186V27H218V23Z" fill="#F5329B"/>
    <path d="M180 23H150V27H180V23Z" fill="#FC1D27"/>
    <path d="M159.752 44.096C158.76 44.096 157.923 43.8773 157.24 43.44C156.557 42.992 156.04 42.352 155.688 41.52C155.336 40.6773 155.16 39.6693 155.16 38.496C155.16 37.2267 155.373 36.1653 155.8 35.312C156.237 34.448 156.84 33.7973 157.608 33.36C158.376 32.9227 159.267 32.704 160.28 32.704C160.781 32.704 161.261 32.752 161.72 32.848C162.179 32.944 162.584 33.0987 162.936 33.312L162.472 34.24C162.184 34.048 161.853 33.9147 161.48 33.84C161.107 33.7547 160.712 33.712 160.296 33.712C159.091 33.712 158.125 34.096 157.4 34.864C156.685 35.632 156.328 36.7787 156.328 38.304C156.328 38.5387 156.339 38.832 156.36 39.184C156.392 39.5253 156.456 39.8667 156.552 40.208L156.152 39.904C156.269 39.3493 156.499 38.88 156.84 38.496C157.181 38.1013 157.608 37.8027 158.12 37.6C158.632 37.3973 159.192 37.296 159.8 37.296C160.547 37.296 161.203 37.4347 161.768 37.712C162.333 37.9893 162.776 38.3787 163.096 38.88C163.416 39.3813 163.576 39.9733 163.576 40.656C163.576 41.3493 163.411 41.9573 163.08 42.48C162.749 42.992 162.291 43.392 161.704 43.68C161.128 43.9573 160.477 44.096 159.752 44.096ZM159.704 43.12C160.237 43.12 160.707 43.024 161.112 42.832C161.528 42.6293 161.853 42.3467 162.088 41.984C162.323 41.6107 162.44 41.1787 162.44 40.688C162.44 39.952 162.184 39.3653 161.672 38.928C161.171 38.4907 160.488 38.272 159.624 38.272C159.048 38.272 158.547 38.3787 158.12 38.592C157.693 38.8053 157.357 39.0987 157.112 39.472C156.867 39.8347 156.744 40.2507 156.744 40.72C156.744 41.1253 156.856 41.5147 157.08 41.888C157.304 42.2507 157.635 42.5493 158.072 42.784C158.52 43.008 159.064 43.12 159.704 43.12ZM169.374 44.096C168.51 44.096 167.742 43.872 167.07 43.424C166.398 42.9653 165.87 42.3147 165.486 41.472C165.102 40.6187 164.91 39.5947 164.91 38.4C164.91 37.2053 165.102 36.1867 165.486 35.344C165.87 34.4907 166.398 33.84 167.07 33.392C167.742 32.9333 168.51 32.704 169.374 32.704C170.238 32.704 171.006 32.9333 171.678 33.392C172.35 33.84 172.878 34.4907 173.262 35.344C173.657 36.1867 173.854 37.2053 173.854 38.4C173.854 39.5947 173.657 40.6187 173.262 41.472C172.878 42.3147 172.35 42.9653 171.678 43.424C171.006 43.872 170.238 44.096 169.374 44.096ZM169.374 43.04C170.035 43.04 170.611 42.864 171.102 42.512C171.593 42.1493 171.977 41.6267 172.254 40.944C172.531 40.2507 172.67 39.4027 172.67 38.4C172.67 37.3973 172.531 36.5547 172.254 35.872C171.977 35.1787 171.593 34.656 171.102 34.304C170.611 33.9413 170.035 33.76 169.374 33.76C168.734 33.76 168.163 33.9413 167.662 34.304C167.161 34.656 166.771 35.1787 166.494 35.872C166.217 36.5547 166.078 37.3973 166.078 38.4C166.078 39.4027 166.217 40.2507 166.494 40.944C166.771 41.6267 167.161 42.1493 167.662 42.512C168.163 42.864 168.734 43.04 169.374 43.04Z" fill="white"/>
    <path d="M60.0384 41.056V40.224L65.9744 32.8H67.2544L61.3664 40.224L60.7424 40.032H69.7504V41.056H60.0384ZM66.3584 44V41.056L66.3904 40.032V37.44H67.5104V44H66.3584ZM74.1716 32.704C75.1636 32.704 76.0009 32.928 76.6836 33.376C77.3662 33.8133 77.8836 34.448 78.2356 35.28C78.5876 36.112 78.7636 37.12 78.7636 38.304C78.7636 39.5627 78.5449 40.624 78.1076 41.488C77.6809 42.352 77.0836 43.0027 76.3156 43.44C75.5476 43.8773 74.6569 44.096 73.6436 44.096C73.1422 44.096 72.6622 44.048 72.2036 43.952C71.7556 43.856 71.3502 43.7013 70.9876 43.488L71.4516 42.56C71.7396 42.752 72.0702 42.8907 72.4436 42.976C72.8276 43.0507 73.2222 43.088 73.6276 43.088C74.8329 43.088 75.7929 42.704 76.5076 41.936C77.2329 41.168 77.5956 40.0213 77.5956 38.496C77.5956 38.2507 77.5796 37.9573 77.5476 37.616C77.5262 37.2747 77.4676 36.9333 77.3716 36.592L77.7716 36.896C77.6649 37.4507 77.4356 37.9253 77.0836 38.32C76.7422 38.704 76.3156 38.9973 75.8036 39.2C75.3022 39.4027 74.7422 39.504 74.1236 39.504C73.3876 39.504 72.7316 39.3653 72.1556 39.088C71.5902 38.8107 71.1476 38.4213 70.8276 37.92C70.5076 37.4187 70.3476 36.8267 70.3476 36.144C70.3476 35.44 70.5129 34.832 70.8436 34.32C71.1742 33.808 71.6276 33.4133 72.2036 33.136C72.7902 32.848 73.4462 32.704 74.1716 32.704ZM74.2196 33.68C73.6862 33.68 73.2116 33.7813 72.7956 33.984C72.3902 34.176 72.0702 34.4533 71.8356 34.816C71.6009 35.1787 71.4836 35.6107 71.4836 36.112C71.4836 36.848 71.7342 37.4347 72.2356 37.872C72.7476 38.3093 73.4356 38.528 74.2996 38.528C74.8756 38.528 75.3769 38.4213 75.8036 38.208C76.2409 37.9947 76.5769 37.7013 76.8116 37.328C77.0569 36.9547 77.1796 36.5387 77.1796 36.08C77.1796 35.664 77.0676 35.2747 76.8436 34.912C76.6196 34.5493 76.2889 34.256 75.8516 34.032C75.4142 33.7973 74.8702 33.68 74.2196 33.68Z" fill="white"/>
    <path d="M82 23H57V27H82V23Z" fill="#9DB60A"/>
    <path d="M126.735 44.096C125.935 44.096 125.173 43.968 124.447 43.712C123.722 43.4453 123.146 43.0933 122.719 42.656L123.279 41.744C123.631 42.1173 124.111 42.4267 124.719 42.672C125.338 42.9173 126.005 43.04 126.719 43.04C127.669 43.04 128.389 42.832 128.879 42.416C129.381 41.9893 129.631 41.4347 129.631 40.752C129.631 40.272 129.514 39.8613 129.279 39.52C129.055 39.168 128.671 38.896 128.127 38.704C127.583 38.512 126.837 38.416 125.887 38.416H123.503L124.079 32.8H130.207V33.824H124.543L125.135 33.264L124.639 37.968L124.047 37.392H126.143C127.274 37.392 128.181 37.5307 128.863 37.808C129.546 38.0853 130.037 38.4747 130.335 38.976C130.645 39.4667 130.799 40.0427 130.799 40.704C130.799 41.3333 130.65 41.9093 130.351 42.432C130.053 42.944 129.605 43.3493 129.007 43.648C128.41 43.9467 127.653 44.096 126.735 44.096ZM134.011 44L138.843 33.312L139.195 33.824H132.267L132.859 33.264V35.92H131.723V32.8H139.947V33.616L135.259 44H134.011Z" fill="white"/>
    <path d="M144 23H119V27H144V23Z" fill="#E66804"/>
    <path d="M235.674 44.096C234.682 44.096 233.845 43.8773 233.162 43.44C232.479 42.992 231.962 42.352 231.61 41.52C231.258 40.6773 231.082 39.6693 231.082 38.496C231.082 37.2267 231.295 36.1653 231.722 35.312C232.159 34.448 232.762 33.7973 233.53 33.36C234.298 32.9227 235.189 32.704 236.202 32.704C236.703 32.704 237.183 32.752 237.642 32.848C238.101 32.944 238.506 33.0987 238.858 33.312L238.394 34.24C238.106 34.048 237.775 33.9147 237.402 33.84C237.029 33.7547 236.634 33.712 236.218 33.712C235.013 33.712 234.047 34.096 233.322 34.864C232.607 35.632 232.25 36.7787 232.25 38.304C232.25 38.5387 232.261 38.832 232.282 39.184C232.314 39.5253 232.378 39.8667 232.474 40.208L232.074 39.904C232.191 39.3493 232.421 38.88 232.762 38.496C233.103 38.1013 233.53 37.8027 234.042 37.6C234.554 37.3973 235.114 37.296 235.722 37.296C236.469 37.296 237.125 37.4347 237.69 37.712C238.255 37.9893 238.698 38.3787 239.018 38.88C239.338 39.3813 239.498 39.9733 239.498 40.656C239.498 41.3493 239.333 41.9573 239.002 42.48C238.671 42.992 238.213 43.392 237.626 43.68C237.05 43.9573 236.399 44.096 235.674 44.096ZM235.626 43.12C236.159 43.12 236.629 43.024 237.034 42.832C237.45 42.6293 237.775 42.3467 238.01 41.984C238.245 41.6107 238.362 41.1787 238.362 40.688C238.362 39.952 238.106 39.3653 237.594 38.928C237.093 38.4907 236.41 38.272 235.546 38.272C234.97 38.272 234.469 38.3787 234.042 38.592C233.615 38.8053 233.279 39.0987 233.034 39.472C232.789 39.8347 232.666 40.2507 232.666 40.72C232.666 41.1253 232.778 41.5147 233.002 41.888C233.226 42.2507 233.557 42.5493 233.994 42.784C234.442 43.008 234.986 43.12 235.626 43.12ZM244.32 32.704C245.312 32.704 246.149 32.928 246.832 33.376C247.515 33.8133 248.032 34.448 248.384 35.28C248.736 36.112 248.912 37.12 248.912 38.304C248.912 39.5627 248.693 40.624 248.256 41.488C247.829 42.352 247.232 43.0027 246.464 43.44C245.696 43.8773 244.805 44.096 243.792 44.096C243.291 44.096 242.811 44.048 242.352 43.952C241.904 43.856 241.499 43.7013 241.136 43.488L241.6 42.56C241.888 42.752 242.219 42.8907 242.592 42.976C242.976 43.0507 243.371 43.088 243.776 43.088C244.981 43.088 245.941 42.704 246.656 41.936C247.381 41.168 247.744 40.0213 247.744 38.496C247.744 38.2507 247.728 37.9573 247.696 37.616C247.675 37.2747 247.616 36.9333 247.52 36.592L247.92 36.896C247.813 37.4507 247.584 37.9253 247.232 38.32C246.891 38.704 246.464 38.9973 245.952 39.2C245.451 39.4027 244.891 39.504 244.272 39.504C243.536 39.504 242.88 39.3653 242.304 39.088C241.739 38.8107 241.296 38.4213 240.976 37.92C240.656 37.4187 240.496 36.8267 240.496 36.144C240.496 35.44 240.661 34.832 240.992 34.32C241.323 33.808 241.776 33.4133 242.352 33.136C242.939 32.848 243.595 32.704 244.32 32.704ZM244.368 33.68C243.835 33.68 243.36 33.7813 242.944 33.984C242.539 34.176 242.219 34.4533 241.984 34.816C241.749 35.1787 241.632 35.6107 241.632 36.112C241.632 36.848 241.883 37.4347 242.384 37.872C242.896 38.3093 243.584 38.528 244.448 38.528C245.024 38.528 245.525 38.4213 245.952 38.208C246.389 37.9947 246.725 37.7013 246.96 37.328C247.205 36.9547 247.328 36.5387 247.328 36.08C247.328 35.664 247.216 35.2747 246.992 34.912C246.768 34.5493 246.437 34.256 246 34.032C245.563 33.7973 245.019 33.68 244.368 33.68Z" fill="white"/>
    <path d="M256 23H224V27H256V23Z" fill="#B93ED6"/>
    <path d="M95.8602 44.096C95.0602 44.096 94.2975 43.968 93.5722 43.712C92.8469 43.4453 92.2709 43.0933 91.8442 42.656L92.4042 41.744C92.7562 42.1173 93.2362 42.4267 93.8442 42.672C94.4629 42.9173 95.1295 43.04 95.8442 43.04C96.7935 43.04 97.5135 42.832 98.0042 42.416C98.5055 41.9893 98.7562 41.4347 98.7562 40.752C98.7562 40.272 98.6389 39.8613 98.4042 39.52C98.1802 39.168 97.7962 38.896 97.2522 38.704C96.7082 38.512 95.9615 38.416 95.0122 38.416H92.6282L93.2042 32.8H99.3322V33.824H93.6682L94.2602 33.264L93.7642 37.968L93.1722 37.392H95.2682C96.3989 37.392 97.3055 37.5307 97.9882 37.808C98.6709 38.0853 99.1615 38.4747 99.4602 38.976C99.7695 39.4667 99.9242 40.0427 99.9242 40.704C99.9242 41.3333 99.7749 41.9093 99.4762 42.432C99.1775 42.944 98.7295 43.3493 98.1322 43.648C97.5349 43.9467 96.7775 44.096 95.8602 44.096ZM104.653 44.096C103.842 44.096 103.074 43.968 102.349 43.712C101.634 43.4453 101.058 43.0933 100.621 42.656L101.181 41.744C101.543 42.1173 102.029 42.4267 102.637 42.672C103.255 42.9173 103.927 43.04 104.653 43.04C105.581 43.04 106.29 42.8373 106.781 42.432C107.282 42.0267 107.533 41.4827 107.533 40.8C107.533 40.1173 107.287 39.5733 106.797 39.168C106.317 38.7627 105.554 38.56 104.509 38.56H103.709V37.712L107.165 33.376L107.325 33.824H101.085V32.8H108.285V33.616L104.829 37.952L104.269 37.584H104.701C106.045 37.584 107.047 37.8827 107.709 38.48C108.381 39.0773 108.717 39.8453 108.717 40.784C108.717 41.4133 108.567 41.9787 108.269 42.48C107.97 42.9813 107.517 43.376 106.909 43.664C106.311 43.952 105.559 44.096 104.653 44.096Z" fill="white"/>
    <path d="M113 23H88V27H113V23Z" fill="#F6B805"/>
    <path d="M21 23H0L0 27H21V23Z" fill="#0C9B86"/>
    <path d="M0.835313 41.056V40.224L6.77131 32.8H8.05131L2.16331 40.224L1.53931 40.032H10.5473V41.056H0.835313ZM7.15531 44V41.056L7.18731 40.032V37.44H8.30731V44H7.15531ZM15.1102 44.096C14.3102 44.096 13.5475 43.968 12.8222 43.712C12.0969 43.4453 11.5209 43.0933 11.0942 42.656L11.6542 41.744C12.0062 42.1173 12.4862 42.4267 13.0942 42.672C13.7129 42.9173 14.3795 43.04 15.0942 43.04C16.0435 43.04 16.7635 42.832 17.2542 42.416C17.7555 41.9893 18.0062 41.4347 18.0062 40.752C18.0062 40.272 17.8889 39.8613 17.6542 39.52C17.4302 39.168 17.0462 38.896 16.5022 38.704C15.9582 38.512 15.2115 38.416 14.2622 38.416H11.8782L12.4542 32.8H18.5822V33.824H12.9182L13.5102 33.264L13.0142 37.968L12.4222 37.392H14.5182C15.6489 37.392 16.5555 37.5307 17.2382 37.808C17.9209 38.0853 18.4115 38.4747 18.7102 38.976C19.0195 39.4667 19.1742 40.0427 19.1742 40.704C19.1742 41.3333 19.0249 41.9093 18.7262 42.432C18.4275 42.944 17.9795 43.3493 17.3822 43.648C16.7849 43.9467 16.0275 44.096 15.1102 44.096Z" fill="white"/>
    <path d="M1.45559 12.172C1.86359 12.332 2.24759 12.372 2.60759 12.292C2.96759 12.204 3.29959 11.92 3.60359 11.44L4.01159 10.792L4.09559 10.684L7.31159 4.6H8.19959L4.38359 11.632C4.12759 12.12 3.82359 12.484 3.47159 12.724C3.12759 12.964 2.75959 13.092 2.36759 13.108C1.98359 13.124 1.59559 13.052 1.20359 12.892L1.45559 12.172ZM4.07159 11.488L0.435594 4.6H1.38359L4.55159 10.756L4.07159 11.488ZM18.8823 13L16.0863 8.812L16.8423 8.38L19.9143 13H18.8823ZM14.2983 9.148V8.368H16.6983V9.148H14.2983ZM16.8783 8.896L16.0623 8.752L18.7383 4.6H19.6983L16.8783 8.896ZM9.39031 13H8.35831L11.4303 8.38L12.1863 8.812L9.39031 13ZM14.5743 13H13.7103V4.6H14.5743V13ZM13.9743 9.148H11.5743V8.368H13.9743V9.148ZM11.3943 8.896L8.57431 4.6H9.53431L12.1983 8.752L11.3943 8.896ZM22.1143 8.356H26.5543V9.112H22.1143V8.356ZM22.2103 12.232H27.2623V13H21.3223V4.6H27.0823V5.368H22.2103V12.232Z" fill="white"/>
    <path d="M266.69 12.232L266.474 12.472V4.6H267.35V12.472L267.11 12.232H271.418L271.178 12.472V4.6H272.054V13H261.758V4.6H262.634V12.472L262.406 12.232H266.69ZM274.883 13V4.6H275.759V11.56L281.135 4.6H281.939V13H281.063V6.052L275.687 13H274.883ZM284.773 13V4.6H287.917C288.629 4.6 289.241 4.716 289.753 4.948C290.265 5.172 290.657 5.5 290.929 5.932C291.209 6.356 291.349 6.872 291.349 7.48C291.349 8.072 291.209 8.584 290.929 9.016C290.657 9.44 290.265 9.768 289.753 10C289.241 10.232 288.629 10.348 287.917 10.348H285.265L285.661 9.928V13H284.773ZM285.661 10L285.265 9.568H287.893C288.733 9.568 289.369 9.388 289.801 9.028C290.241 8.66 290.461 8.144 290.461 7.48C290.461 6.808 290.241 6.288 289.801 5.92C289.369 5.552 288.733 5.368 287.893 5.368H285.265L285.661 4.948V10ZM293.956 8.356H298.396V9.112H293.956V8.356ZM294.052 12.232H299.104V13H293.164V4.6H298.924V5.368H294.052V12.232Z" fill="white"/>
    <path d="M103.539 13V0.399999H108.255C109.323 0.399999 110.241 0.573999 111.009 0.922C111.777 1.258 112.365 1.75 112.773 2.398C113.193 3.034 113.403 3.808 113.403 4.72C113.403 5.608 113.193 6.376 112.773 7.024C112.365 7.66 111.777 8.152 111.009 8.5C110.241 8.848 109.323 9.022 108.255 9.022H104.277L104.871 8.392V13H103.539ZM104.871 8.5L104.277 7.852H108.219C109.479 7.852 110.433 7.582 111.081 7.042C111.741 6.49 112.071 5.716 112.071 4.72C112.071 3.712 111.741 2.932 111.081 2.38C110.433 1.828 109.479 1.552 108.219 1.552H104.277L104.871 0.922V8.5ZM113.638 13L119.398 0.399999H120.712L126.472 13H125.068L119.776 1.174H120.316L115.024 13H113.638ZM115.906 9.634L116.302 8.554H123.628L124.024 9.634H115.906ZM127.393 11.488L127.879 10.534C128.431 11.014 129.049 11.374 129.733 11.614C130.429 11.842 131.125 11.962 131.821 11.974C132.517 11.974 133.153 11.872 133.729 11.668C134.317 11.464 134.791 11.164 135.151 10.768C135.511 10.36 135.691 9.868 135.691 9.292C135.691 8.56 135.397 7.996 134.809 7.6C134.233 7.204 133.429 7.006 132.397 7.006H129.697V5.926H132.325C133.213 5.926 133.903 5.74 134.395 5.368C134.899 4.984 135.151 4.456 135.151 3.784C135.151 3.304 135.007 2.896 134.719 2.56C134.443 2.212 134.059 1.948 133.567 1.768C133.087 1.576 132.547 1.474 131.947 1.462C131.347 1.438 130.723 1.516 130.075 1.696C129.439 1.864 128.821 2.134 128.221 2.506L127.789 1.408C128.533 0.963999 129.307 0.657999 130.111 0.489999C130.915 0.309999 131.695 0.249999 132.451 0.309999C133.207 0.369999 133.885 0.543999 134.485 0.831999C135.097 1.12 135.583 1.498 135.943 1.966C136.303 2.434 136.483 2.992 136.483 3.64C136.483 4.24 136.327 4.768 136.015 5.224C135.715 5.68 135.289 6.034 134.737 6.286C134.197 6.526 133.555 6.646 132.811 6.646L132.883 6.25C133.723 6.25 134.449 6.382 135.061 6.646C135.685 6.91 136.165 7.288 136.501 7.78C136.849 8.26 137.023 8.824 137.023 9.472C137.023 10.084 136.867 10.63 136.555 11.11C136.255 11.578 135.835 11.974 135.295 12.298C134.767 12.61 134.173 12.838 133.513 12.982C132.853 13.114 132.163 13.15 131.443 13.09C130.723 13.03 130.015 12.874 129.319 12.622C128.623 12.358 127.981 11.98 127.393 11.488ZM140.33 13V0.399999H141.428L147.188 10.228H146.612L152.318 0.399999H153.416V13H152.138V2.398H152.444L147.188 11.398H146.558L141.266 2.398H141.608V13H140.33ZM158.85 6.034H165.51V7.168H158.85V6.034ZM158.994 11.848H166.572V13H157.662V0.399999H166.302V1.552H158.994V11.848ZM169.527 13V0.399999H174.243C175.311 0.399999 176.229 0.573999 176.997 0.922C177.765 1.258 178.353 1.75 178.761 2.398C179.181 3.034 179.391 3.808 179.391 4.72C179.391 5.608 179.181 6.376 178.761 7.024C178.353 7.66 177.765 8.152 176.997 8.5C176.229 8.848 175.311 9.022 174.243 9.022H170.265L170.859 8.392V13H169.527ZM170.859 8.5L170.265 7.852H174.207C175.467 7.852 176.421 7.582 177.069 7.042C177.729 6.49 178.059 5.716 178.059 4.72C178.059 3.712 177.729 2.932 177.069 2.38C176.421 1.828 175.467 1.552 174.207 1.552H170.265L170.859 0.922V8.5ZM187.387 4.9C188.875 4.9 190.009 5.236 190.789 5.908C191.581 6.568 191.977 7.552 191.977 8.86C191.977 10.216 191.557 11.248 190.717 11.956C189.877 12.652 188.677 13 187.117 13H182.113V0.399999H183.427V4.9H187.387ZM187.081 11.938C188.245 11.938 189.127 11.68 189.727 11.164C190.339 10.648 190.645 9.892 190.645 8.896C190.645 7.9 190.345 7.168 189.745 6.7C189.145 6.22 188.257 5.98 187.081 5.98H183.427V11.938H187.081ZM194.155 13V0.399999H195.469V13H194.155Z" fill="white"/>
    <path d="M30.0384 41.056V40.224L35.9744 32.8H37.2544L31.3664 40.224L30.7424 40.032H39.7504V41.056H30.0384ZM36.3584 44V41.056L36.3904 40.032V37.44H37.5104V44H36.3584ZM41.9797 44L46.8117 33.312L47.1637 33.824H40.2357L40.8277 33.264V35.92H39.6917V32.8H47.9157V33.616L43.2277 44H41.9797Z" fill="white"/>
    <path d="M51 23H27V27H51V23Z" fill="#22932B"/>
    <path d="M274.042 44L278.874 33.312L279.226 33.824H272.298L272.89 33.264V35.92H271.754V32.8H279.978V33.616L275.29 44H274.042ZM281.288 44V43.184L285.944 38.624C286.371 38.208 286.691 37.8453 286.904 37.536C287.117 37.216 287.261 36.9173 287.336 36.64C287.411 36.3627 287.448 36.1013 287.448 35.856C287.448 35.2053 287.224 34.6933 286.776 34.32C286.339 33.9467 285.688 33.76 284.824 33.76C284.163 33.76 283.576 33.8613 283.064 34.064C282.563 34.2667 282.131 34.5813 281.768 35.008L280.952 34.304C281.389 33.792 281.949 33.3973 282.632 33.12C283.315 32.8427 284.077 32.704 284.92 32.704C285.677 32.704 286.333 32.8267 286.888 33.072C287.443 33.3067 287.869 33.6533 288.168 34.112C288.477 34.5707 288.632 35.1093 288.632 35.728C288.632 36.0907 288.579 36.448 288.472 36.8C288.376 37.152 288.195 37.5253 287.928 37.92C287.672 38.304 287.293 38.7413 286.792 39.232L282.52 43.424L282.2 42.976H289.144V44H281.288Z" fill="white"/>
    <path d="M300 23H262V27H300V23Z" fill="#0F7AEB"/>
</svg>
