<svg viewBox="0 0 75 51" fill="none" xmlns="http://www.w3.org/2000/svg">
    <g opacity="0.75">
        <mask id="mask0_14_899" style="mask-type:luminance" maskUnits="userSpaceOnUse" x="0" y="0" width="75" height="51">
            <path d="M75 0.055542H0V50.0555H75V0.055542Z" fill="white"/>
        </mask>
        <g mask="url(#mask0_14_899)">
            <path d="M48.1013 12.3069C47.5301 12.5909 47.1037 12.9779 46.8174 13.4689C46.4982 13.9623 46.4158 14.3925 46.5712 14.7608C46.7267 15.1291 47.0459 15.3349 47.5301 15.3793C48.013 15.4249 48.5395 15.3045 49.1108 15.0215C49.6809 14.7374 50.1263 14.3493 50.4453 13.8559C50.7305 13.3649 50.8036 12.9347 50.6658 12.5652C50.5269 12.1969 50.1994 11.9912 49.6809 11.9479C49.1968 11.9035 48.6703 12.0227 48.1002 12.3069H48.1013Z" fill="white"/>
            <path d="M56.2547 18.2974C57.1605 16.7869 57.9234 15.5383 58.5455 14.5527C59.1676 13.5671 59.6777 12.7569 60.0758 12.1245C60.4739 11.4907 60.8094 10.9811 61.0826 10.5905C61.3548 10.2024 61.6046 9.8493 61.8296 9.53134C63.1583 9.29633 64.6777 9.09408 66.3892 8.92574C68.0997 8.75853 70.0361 8.62056 72.1964 8.51535C72.2989 8.51069 72.385 8.51536 72.4557 8.52823C72.5249 8.54223 72.5936 8.5469 72.6627 8.54341L72.8688 8.53408C73.04 8.52587 73.1221 8.43354 73.1126 8.257C73.1047 8.08045 72.9902 7.856 72.7702 7.58359C72.5508 7.31117 72.3024 7.16386 72.0267 7.14165C71.9242 7.14632 71.8217 7.16033 71.7192 7.18258C71.6166 7.20479 71.532 7.21762 71.4639 7.21998C69.8171 7.29948 68.2997 7.37313 66.9112 7.44094C65.5222 7.50875 64.2442 7.58825 63.0807 7.67827C63.336 7.29363 63.6401 6.83883 63.9934 6.31273C64.3458 5.78663 64.7942 5.13896 65.3411 4.36615C65.5954 3.9476 65.7935 3.60739 65.9348 3.34668C66.0771 3.08596 66.1453 2.92112 66.1418 2.85331C66.1299 2.61715 66.0652 2.34942 65.9477 2.04895C65.8298 1.74966 65.678 1.46907 65.4939 1.20718C65.3092 0.945302 65.1171 0.717324 64.9191 0.523251C64.72 0.330344 64.519 0.236814 64.3124 0.247337C64.2099 0.252013 63.9934 0.398153 63.6635 0.685754C63.4326 0.899708 62.8612 1.68185 61.9485 3.03101C61.0358 4.38018 59.9225 6.05201 58.6117 8.04773C56.9341 8.19852 55.5998 8.33065 54.609 8.44755C53.6171 8.56444 52.8313 8.67087 52.253 8.76674C51.6066 8.89999 51.1308 9.00873 50.8257 9.0929C50.5853 9.1046 50.4734 9.28114 50.4908 9.62136C50.5097 9.99661 50.6804 10.3217 51.0034 10.5964C51.3259 10.8723 56.5912 10.296 57.1804 10.3696L51.9773 19.1088C51.9256 19.1439 51.8823 19.1801 51.8454 19.2198C50.8655 20.2568 49.797 21.4353 48.6416 22.7529C47.4861 24.0717 46.3612 25.3121 45.2669 26.4742C44.1715 27.6363 43.1549 28.6242 42.2161 29.4379C41.2761 30.2516 40.4975 30.6725 39.8803 30.7029C39.7778 30.7076 39.7248 30.6772 39.7213 30.6082C39.706 30.3019 39.8626 29.8167 40.1913 29.1527C40.5199 28.4886 40.9381 27.7427 41.4481 26.9162C41.957 26.0896 42.5165 25.2268 43.1255 24.3265C43.7333 23.4275 44.2951 22.5986 44.8075 21.8398C45.3199 21.081 45.744 20.4381 46.0785 19.9096C46.413 19.3812 46.578 19.0503 46.5709 18.9135C46.5614 18.7089 46.4966 18.4482 46.3777 18.129C46.2587 17.811 46.1068 17.5199 45.9218 17.2557C45.7357 16.9927 45.5366 16.7623 45.3211 16.5683C45.1055 16.3742 44.9112 16.2806 44.7404 16.29C44.5342 16.2994 44.195 16.5718 43.7239 17.1072C43.2515 17.6415 42.7344 18.3161 42.1737 19.1274C41.6119 19.94 41.0288 20.8461 40.4257 21.848C39.9486 22.6395 39.501 23.4193 39.0805 24.1863C38.8756 24.4177 38.6694 24.6504 38.4609 24.8865C37.5822 25.885 36.7023 26.8659 35.8212 27.8292C34.9401 28.7938 34.1321 29.6601 33.3971 30.4294C32.6621 31.1986 32.0225 31.8264 31.4794 32.314C30.9364 32.8015 30.5618 33.0493 30.3557 33.0599C30.2862 33.0634 30.2509 33.0307 30.2473 32.9629C30.232 32.6566 30.4912 31.9784 31.0236 30.9286C31.556 29.8787 32.258 28.6091 33.1309 27.1161C34.0025 25.6243 41.8993 14.8672 42.7957 13.5099C43.6909 12.1536 44.4188 11.0512 44.9795 10.2048C45.539 9.35829 45.8346 8.90117 45.8653 8.83101C46.1209 8.44288 46.3282 8.10969 46.486 7.82794C46.6439 7.54732 46.7216 7.37314 46.7181 7.30533C46.7063 7.068 46.6416 6.79677 46.5238 6.4963C46.406 6.19465 46.254 5.91291 46.0691 5.64865C45.8842 5.38445 45.6839 5.15532 45.4683 4.96124C45.2528 4.76716 45.0584 4.67363 44.8876 4.68298C44.7498 4.68999 44.5166 4.83731 44.1879 5.12609C43.99 5.3073 43.5542 5.88249 42.8805 6.85288C42.2067 7.8244 41.3821 9.05782 40.4068 10.5555C39.4315 12.0531 31.3263 23.8004 30.4417 25.3787C29.6607 26.7723 29.0258 27.9918 28.5358 29.0381C28.3568 28.9913 28.2178 28.9691 28.1259 28.9738C27.6112 28.9984 26.776 29.1597 25.6229 29.4531C24.4685 29.7477 23.1445 30.1032 21.6533 30.5159C20.1608 30.9298 18.5671 31.3904 16.8745 31.8989C15.1795 32.4087 13.5268 32.8728 11.9154 33.2914C10.3029 33.7111 8.80812 34.0735 7.43113 34.3786C6.05414 34.6838 4.91864 34.8592 4.02814 34.9024C3.65003 34.9211 3.45921 34.879 3.4545 34.7773C3.44272 34.5388 3.76547 33.9356 4.42274 32.9652C5.07882 31.9948 5.93988 30.7848 7.00239 29.3339C8.06605 27.883 9.27577 26.2719 10.6315 24.4996C11.9885 22.7283 13.3772 20.9373 14.8013 19.1274C16.7473 18.8632 18.5848 18.6458 20.3128 18.4763C22.0396 18.3079 23.6239 18.1711 25.0621 18.0671C26.5004 17.9642 27.7608 17.8765 28.8397 17.8064C29.9187 17.7374 30.8009 17.6684 31.4853 17.6006C32.0684 17.5725 32.6091 17.3761 33.1061 17.0102C33.2711 16.8664 33.3405 16.7097 33.3146 16.539C33.2887 16.3695 33.1721 16.2561 32.9624 16.1976C32.8211 16.1369 32.2533 16.1123 31.2568 16.1264C30.2603 16.1415 28.9917 16.1942 27.4486 16.2854C25.9055 16.3777 24.1587 16.5051 22.2081 16.6676C20.2563 16.8313 18.2715 17.0301 16.2561 17.2639C17.5176 15.6669 18.7238 14.1423 19.8722 12.6868C21.0207 11.2324 22.0396 9.94517 22.9313 8.82752C23.8218 7.70982 24.5345 6.82247 25.0692 6.16424C25.604 5.50719 25.8702 5.1623 25.869 5.12727C25.9338 5.05592 25.9986 4.97642 26.0634 4.88758C26.127 4.79989 26.1918 4.71923 26.2577 4.6479C28.7867 4.35446 31.3369 4.11245 33.9059 3.91837C36.475 3.72547 38.925 3.57232 41.2573 3.45891C43.5896 3.34551 45.724 3.23327 47.6604 3.12221C49.5969 3.01114 51.2154 2.89072 52.5158 2.75861C52.8925 2.7399 53.2095 2.55401 53.4673 2.20094C53.7256 1.84786 53.8973 1.49829 53.9834 1.15223C54.0411 0.945302 54.0307 0.723167 53.9506 0.488175C53.9117 0.387631 53.8197 0.289425 53.6783 0.194726C53.536 0.098858 53.4136 0.0544316 53.3111 0.0591081C52.8632 0.0474169 51.7549 0.057939 49.9867 0.0930128C48.2176 0.128086 46.0644 0.21577 43.5283 0.354896C40.9911 0.49519 38.2077 0.690432 35.1769 0.939454C32.1461 1.18848 29.146 1.50531 26.1729 1.88878C25.8408 1.42698 25.3567 1.0248 24.7205 0.679912C24.5439 0.586381 24.4391 0.548969 24.4061 0.567675C24.3731 0.587551 24.333 0.665884 24.2883 0.803838C24.2435 0.942963 24.1669 1.1347 24.0586 1.37788C23.9502 1.62222 23.7665 1.92152 23.5097 2.27459C20.6096 2.72237 17.9617 3.24379 15.5682 3.83771C13.1735 4.43162 11.2747 5.13896 9.87177 5.95615C8.36758 6.81431 7.49005 7.50521 7.24032 8.029C7.14253 8.13538 7.11546 8.28269 7.15906 8.46745C7.2026 8.65333 7.28039 8.8287 7.39107 8.99355C7.5018 9.15953 7.61959 9.2893 7.74565 9.38634C7.87052 9.48221 7.98359 9.49508 8.08252 9.42143C9.54784 8.46391 11.416 7.64786 13.6859 6.97444C15.9557 6.30103 18.4376 5.7457 21.1326 5.3073C19.1962 7.85831 17.4352 10.1626 15.8521 12.218C14.2689 14.2745 12.8307 16.1521 11.5397 17.8531C10.8907 17.9537 10.1238 18.0752 9.23685 18.2214C8.34992 18.3664 7.49826 18.5195 6.6808 18.6785C5.86334 18.8387 5.14008 19.0012 4.51344 19.1672C3.88561 19.3344 3.50515 19.4724 3.37322 19.5811C3.14235 19.7974 3.00925 20.0335 2.97037 20.2919C2.93151 20.5491 2.95977 20.7876 3.05754 21.0039C3.15413 21.2214 3.28959 21.3687 3.46628 21.4447C3.64179 21.5219 3.81023 21.4715 3.97396 21.2915C4.0729 21.219 4.31791 21.1208 4.7078 21.0004C5.09649 20.8788 5.58061 20.7537 6.159 20.6228C6.73619 20.4918 7.36633 20.3679 8.04838 20.2498C8.73038 20.1317 9.37705 20.0066 9.98957 19.8745C7.72913 22.8511 5.93047 25.2502 4.59472 27.0716C3.25778 28.8943 2.24596 30.3335 1.55806 31.3904C0.87133 32.4473 0.436682 33.2283 0.255282 33.731C0.0738838 34.2349 -0.00857008 34.6569 0.00792073 34.9971C0.0762397 36.3931 1.13989 37.0407 3.19771 36.9402C3.71246 36.9156 4.63123 36.7332 5.95521 36.3966C7.27919 36.0587 8.79632 35.6354 10.5078 35.1269C12.2182 34.6171 14.0392 34.0676 15.9699 33.4796C17.9004 32.8915 19.7215 32.342 21.4318 31.8323C23.1421 31.3226 24.6605 30.8993 25.9845 30.5627C26.8526 30.3417 27.544 30.1885 28.0635 30.102C27.7454 30.876 27.5911 31.4149 27.6052 31.7107C27.6406 32.4251 27.8609 33.0622 28.2672 33.6234C28.6736 34.1834 29.1672 34.45 29.7502 34.4219C30.3333 34.3939 31.0471 34.0431 31.8905 33.3708C32.7339 32.6986 33.7198 31.7645 34.8459 30.5662C35.628 29.7349 36.482 28.7903 37.4032 27.7369C37.1676 28.3962 37.0592 28.92 37.0792 29.3058C37.1158 30.0552 37.3325 30.7099 37.7283 31.27C38.1252 31.8311 38.6376 32.0954 39.2678 32.065C39.8579 32.0357 40.5199 31.8078 41.2561 31.3798C41.9911 30.952 42.7544 30.3943 43.546 29.708C44.3375 29.0218 45.1244 28.2583 45.9077 27.4177C46.691 26.5783 47.4566 25.7307 48.2058 24.8749C48.591 24.4341 48.9597 24.005 49.3142 23.5841L48.8466 24.3698C47.9796 26.079 47.1162 27.634 46.3989 29.1047C45.6804 30.5755 45.1574 31.8136 44.8287 32.8214C44.6497 33.3767 44.6167 33.7544 44.7298 33.9542C44.996 34.4535 45.2434 34.7832 45.4742 34.9445C45.7063 35.1035 45.9054 35.162 46.0762 35.1198C46.1444 35.1164 46.2034 35.0953 46.254 35.0602C46.3035 35.0229 46.3918 34.8907 46.5178 34.6639C46.6439 34.4347 46.85 34.0759 47.1351 33.5848C47.4202 33.0926 47.8489 32.3724 48.4214 31.4243C50.1658 28.4734 51.6832 25.9259 52.9692 23.7817C54.2556 21.6387 55.352 19.8102 56.2567 18.2986L56.2547 18.2974Z" fill="white"/>
            <path d="M74.997 17.6252C74.9861 17.4206 74.9144 17.3481 74.78 17.4054C74.6447 17.4627 74.5621 17.527 74.5317 17.596C73.4831 18.6704 72.3679 19.9108 71.1829 21.3161C69.9965 22.7226 68.714 24.0636 67.3335 25.3414C65.953 26.6204 64.4674 27.7241 62.8809 28.6535C61.2928 29.5842 59.6073 30.0927 57.8251 30.1793C57.3105 30.2038 56.9995 30.1769 56.8925 30.0962C56.785 30.0167 56.7263 29.8741 56.7168 29.6695C56.6885 29.0908 56.7865 28.4548 57.0114 27.7615C57.2364 27.0682 57.5698 26.3188 58.0137 25.5121C58.3601 25.5297 58.8817 25.4443 59.5804 25.2572C60.2786 25.0702 61.042 24.8118 61.8726 24.4809C62.7017 24.1512 63.5438 23.7351 64.3993 23.2323C65.2543 22.7296 66.0296 22.1637 66.7234 21.5324C67.4171 20.9023 67.9775 20.2008 68.4055 19.4292C68.833 18.6576 69.026 17.8298 68.9823 16.9448C68.9554 16.4011 68.7867 15.9569 68.4781 15.6132C68.1686 15.2694 67.8033 15.0064 67.3818 14.8217C66.9597 14.6381 66.5323 14.513 66.1003 14.4487C65.6668 14.3844 65.313 14.3587 65.0388 14.3727C64.2156 14.4125 63.3686 14.658 62.4967 15.1104C61.6253 15.5617 60.7688 16.1591 59.9287 16.8981C59.0892 17.6381 58.287 18.4798 57.526 19.4198C56.7641 20.361 56.0997 21.3407 55.5304 22.3566C54.9616 23.375 54.5221 24.3851 54.2101 25.3894C53.899 26.3948 53.7652 27.3394 53.8085 28.2233C53.8652 29.3808 54.2385 30.2669 54.9262 30.8819C55.6155 31.4957 56.572 31.7751 57.7958 31.7155C58.9618 31.6593 60.1577 31.3355 61.3839 30.7474C62.6087 30.1594 63.8021 29.4357 64.9636 28.5776C66.1237 27.7194 67.2379 26.7783 68.3049 25.7541C69.3709 24.73 70.3289 23.7456 71.1755 22.7998C72.0225 21.8551 72.7461 21.018 73.3468 20.2885C73.946 19.5601 74.3759 19.0527 74.6377 18.7674C74.6696 18.7324 74.7412 18.6178 74.8532 18.4237C74.9637 18.2308 75.011 17.9643 74.9945 17.624L74.997 17.6252ZM60.9151 21.2004C61.6417 20.2616 62.3827 19.4234 63.1377 18.6868C63.8916 17.9514 64.6098 17.3528 65.2921 16.8933C65.9739 16.4339 66.5546 16.1919 67.0354 16.1685C67.3783 16.1521 67.5584 16.3147 67.5749 16.6537C67.5997 17.1646 67.3464 17.783 66.8149 18.5079C66.2839 19.2339 65.5971 19.9576 64.7561 20.6813C63.915 21.405 62.9764 22.0726 61.9408 22.6863C60.9057 23.3002 59.8959 23.7502 58.9135 24.0355C59.5192 23.085 60.187 22.1404 60.9136 21.2004H60.9151Z" fill="white"/>
            <path d="M7.75258 44.2168C7.89153 43.9841 8.08 43.8157 8.31798 43.7117C8.55591 43.6077 8.86098 43.555 9.23438 43.555C9.77738 43.555 10.3887 43.6158 11.0684 43.7374L11.099 43.0804C10.7327 43.0067 10.3899 42.9506 10.0707 42.9132C9.7515 42.8758 9.45584 42.8571 9.18491 42.8571C8.63484 42.8571 8.19192 42.9307 7.85505 43.0792C7.51933 43.2277 7.259 43.4638 7.07526 43.7865C6.8856 44.1104 6.75487 44.481 6.683 44.8984C6.61114 45.3169 6.57581 45.8383 6.57581 46.465C6.57581 47.0916 6.61114 47.6025 6.683 48.0164C6.75487 48.4303 6.88446 48.7962 7.07526 49.113C7.259 49.4371 7.52167 49.6744 7.86446 49.8262C8.20725 49.9781 8.65719 50.0542 9.21437 50.0542C9.77151 50.0542 10.3993 49.983 11.099 49.8415L11.0684 49.1737C10.417 49.2956 9.85278 49.356 9.37691 49.356C8.90104 49.356 8.52998 49.3 8.28145 49.1889C8.03292 49.078 7.84445 48.8909 7.71605 48.6279C7.58646 48.3718 7.50047 48.0819 7.45573 47.758C7.41099 47.4342 7.38979 47.0063 7.38979 46.4743C7.38979 45.9424 7.41566 45.4899 7.46633 45.1193C7.51699 44.7487 7.61239 44.4471 7.75139 44.2144L7.75258 44.2168Z" fill="white"/>
            <path d="M19.6507 43.7409C19.4304 43.4416 19.143 43.2183 18.7896 43.0733C18.4362 42.9283 17.998 42.8558 17.4751 42.8558C16.9521 42.8558 16.5221 42.9295 16.1664 43.078C15.8095 43.2265 15.5232 43.4509 15.3054 43.7502C15.0874 44.0507 14.9319 44.4271 14.8365 44.8831C14.7411 45.3379 14.694 45.8722 14.694 46.486C14.694 47.0997 14.7399 47.6317 14.8318 48.083C14.9237 48.5343 15.078 48.9048 15.2947 49.1948C15.5115 49.4847 15.7989 49.6999 16.1558 49.8414C16.5127 49.9829 16.9556 50.0542 17.4857 50.0542C18.0157 50.0542 18.4563 49.9864 18.8096 49.8517C19.163 49.7176 19.4481 49.5048 19.6648 49.2145C19.8815 48.9247 20.037 48.5576 20.1277 48.1122C20.2196 47.6668 20.2655 47.1313 20.2655 46.5046C20.2655 45.878 20.2184 45.3355 20.123 44.8772C20.0276 44.419 19.8697 44.0402 19.6495 43.7397L19.6507 43.7409ZM19.3597 47.8211C19.2985 48.1847 19.1948 48.4816 19.0487 48.7108C18.9027 48.9399 18.7024 49.1071 18.448 49.211C18.1935 49.3152 17.872 49.3678 17.4857 49.3678C17.0993 49.3678 16.7754 49.3142 16.5174 49.2066C16.2594 49.0989 16.0557 48.9282 15.9061 48.6956C15.7565 48.463 15.6516 48.1648 15.5904 47.8012C15.5292 47.4376 15.4985 46.9992 15.4985 46.4871C15.4985 45.9751 15.5292 45.5331 15.5904 45.1625C15.6516 44.7919 15.7588 44.4868 15.9108 44.2471C16.0639 44.0074 16.2677 43.8309 16.5221 43.7163C16.7765 43.6017 17.0946 43.5444 17.4751 43.5444C17.8555 43.5444 18.1723 43.6017 18.428 43.7163C18.6824 43.8309 18.8862 44.0098 19.0393 44.2517C19.1925 44.4949 19.2997 44.8012 19.3597 45.1719C19.4209 45.5425 19.4516 45.9879 19.4516 46.507C19.4516 47.0261 19.4209 47.4575 19.3597 47.8211Z" fill="white"/>
            <path d="M28.6836 49.2661H28.4704L25.7706 42.9576H24.3041V49.955H25.0874V43.645H25.2817L28.0216 49.955H29.4574V42.9576H28.6836V49.2661Z" fill="white"/>
            <path d="M38.4603 44.025C38.2765 43.7046 38.0139 43.4475 37.6711 43.251C37.3283 43.0558 36.8713 42.9576 36.3011 42.9576H33.7852V49.9535H36.3011C36.8442 49.9535 37.2847 49.8542 37.6204 49.6557C37.9561 49.4567 38.2212 49.1924 38.4155 48.8616C38.6087 48.532 38.7395 48.1485 38.8078 47.7136C38.8761 47.2787 38.9091 46.825 38.9091 46.3539C38.9091 45.9295 38.8796 45.5145 38.8231 45.1099C38.7654 44.7055 38.6452 44.343 38.4615 44.0227L38.4603 44.025ZM36.3011 49.2661H34.5696V43.645H36.3011C36.6946 43.645 37.0103 43.7245 37.2482 43.8824C37.4861 44.0414 37.6675 44.2483 37.7936 44.5043C37.9196 44.7604 38.0021 45.0503 38.0433 45.3741C38.0845 45.698 38.1045 46.0242 38.1045 46.3551C38.1045 48.2958 37.5038 49.2676 36.3011 49.2676V49.2661Z" fill="white"/>
            <path d="M47.6266 43.7409C47.4063 43.4416 47.1189 43.2183 46.7655 43.0733C46.4122 42.9283 45.974 42.8558 45.451 42.8558C44.928 42.8558 44.498 42.9295 44.1423 43.078C43.7854 43.2265 43.4992 43.4509 43.2813 43.7502C43.0633 44.0507 42.9079 44.4271 42.8125 44.8831C42.7171 45.3379 42.6699 45.8722 42.6699 46.486C42.6699 47.0997 42.7159 47.6317 42.8077 48.083C42.8996 48.5343 43.0539 48.9048 43.2707 49.1948C43.4874 49.4847 43.7748 49.6999 44.1317 49.8414C44.4886 49.9829 44.9315 50.0542 45.4616 50.0542C45.9916 50.0542 46.4322 49.9864 46.7856 49.8517C47.1389 49.7176 47.424 49.5048 47.6407 49.2145C47.8574 48.9247 48.0129 48.5576 48.1036 48.1122C48.1955 47.6668 48.2414 47.1313 48.2414 46.5046C48.2414 45.878 48.1943 45.3355 48.0989 44.8772C48.0035 44.419 47.8457 44.0402 47.6254 43.7397L47.6266 43.7409ZM47.3356 47.8211C47.2744 48.1847 47.1707 48.4816 47.0247 48.7108C46.8786 48.9399 46.6784 49.1071 46.4239 49.211C46.1695 49.3152 45.8479 49.3678 45.4616 49.3678C45.0752 49.3678 44.7513 49.3142 44.4933 49.2066C44.2354 49.0989 44.0316 48.9282 43.882 48.6956C43.7324 48.463 43.6276 48.1648 43.5663 47.8012C43.5051 47.4376 43.4744 46.9992 43.4744 46.4871C43.4744 45.9751 43.5051 45.5331 43.5663 45.1625C43.6276 44.7919 43.7347 44.4868 43.8867 44.2471C44.0398 44.0074 44.2436 43.8309 44.498 43.7163C44.7524 43.6017 45.0705 43.5444 45.451 43.5444C45.8314 43.5444 46.1483 43.6017 46.4039 43.7163C46.6584 43.8309 46.8621 44.0098 47.0152 44.2517C47.1684 44.4949 47.2756 44.8012 47.3356 45.1719C47.3969 45.5425 47.4275 45.9879 47.4275 46.507C47.4275 47.0261 47.3969 47.4575 47.3356 47.8211Z" fill="white"/>
            <path d="M55.6859 48.8722L53.6893 42.9576H52.2734V49.955H53.0578V43.7865H53.2001L55.2475 49.7009H56.1239L58.1713 43.7865H58.3136V49.955H59.0979V42.9576H57.6821L55.6859 48.8722Z" fill="white"/>
            <path d="M67.144 46.6379C66.9872 46.4964 66.7856 46.3784 66.5373 46.2836C66.29 46.189 65.9859 46.1013 65.6256 46.0206C65.2653 45.9399 64.9706 45.8651 64.7397 45.7985C64.5088 45.7307 64.3277 45.6488 64.1943 45.5506C64.0624 45.4536 63.9703 45.3355 63.9201 45.1964C63.8693 45.0584 63.8434 44.8842 63.8434 44.6761C63.8434 43.915 64.3521 43.5339 65.3713 43.5339C65.5679 43.5339 65.8326 43.5491 66.166 43.5795C66.4985 43.6099 66.9026 43.652 67.3783 43.7058L67.45 43.0487L67.1036 42.9984C66.4114 42.8979 65.8162 42.8465 65.3215 42.8465C63.8066 42.8465 63.0507 43.4731 63.0507 44.7264C63.0507 45.0362 63.0895 45.2992 63.1671 45.5155C63.2447 45.7318 63.3722 45.9154 63.5488 46.0662C63.7255 46.2182 63.9529 46.3445 64.2311 46.445C64.5088 46.5467 64.8457 46.6367 65.2394 46.7174C65.5445 46.7782 65.7973 46.8402 65.9978 46.9045C66.1979 46.9687 66.3581 47.0459 66.4761 47.1371C66.595 47.2283 66.6796 47.3394 66.7304 47.4703C66.7811 47.6013 66.807 47.7614 66.807 47.9508C66.807 48.8873 66.3039 49.3559 65.2991 49.3559C64.8233 49.3559 64.1211 49.2955 63.191 49.1736L63.1094 49.8203L63.4757 49.8704C63.8494 49.9244 64.1908 49.9662 64.4994 49.9967C64.8079 50.0271 65.0886 50.0424 65.3394 50.0424C66.8399 50.0424 67.5904 49.3245 67.5904 47.8889C67.5904 47.5989 67.555 47.3534 67.4829 47.1511C67.4122 46.9489 67.2982 46.777 67.1415 46.6356L67.144 46.6379Z" fill="white"/>
        </g>
    </g>
</svg>
