<svg viewBox="0 0 195 195" fill="none" xmlns="http://www.w3.org/2000/svg">
    <path d="M97.2481 194.632C150.722 194.632 194.07 151.283 194.07 97.8097C194.07 44.3364 150.721 0.987693 97.2481 0.987696C43.7747 0.987699 0.426028 44.3364 0.426031 97.8098C0.426034 151.283 43.7748 194.632 97.2481 194.632Z" fill="#000923"/>
    <path d="M97.2512 185.738C145.814 185.738 185.181 146.371 185.181 97.8085C185.181 49.2462 145.814 9.87865 97.2512 9.87866C48.6889 9.87866 9.32129 49.2462 9.32129 97.8085C9.3213 146.371 48.6889 185.738 97.2512 185.738Z" fill="url(#paint0_radial_21_2128)"/>
    <path fill-rule="evenodd" clip-rule="evenodd" d="M97.2475 186.483C48.2722 186.483 8.57349 146.784 8.57349 97.809C8.57349 48.8337 48.2722 9.13504 97.2475 9.13504C146.223 9.13503 185.921 48.8337 185.921 97.809C185.922 146.784 146.223 186.483 97.2475 186.483ZM97.2475 12.1239C49.9216 12.1239 11.55 50.4956 11.55 97.8214C11.55 145.147 49.9216 183.519 97.2475 183.519C144.573 183.519 182.945 145.147 182.945 97.8214C182.945 50.4956 144.573 12.1239 97.2475 12.1239Z" fill="white"/>
    <path fill-rule="evenodd" clip-rule="evenodd" d="M122.867 120.478C121.59 121.755 119.965 122.387 117.981 122.387C116.009 122.387 114.384 121.755 113.119 120.49C111.854 119.225 111.222 117.7 111.222 115.901C111.222 114.115 111.867 112.59 113.144 111.325C114.422 110.048 116.046 109.415 118.031 109.415C120.002 109.415 121.627 110.048 122.892 111.313C124.157 112.578 124.79 114.103 124.79 115.901C124.79 117.675 124.145 119.2 122.867 120.478ZM121.739 112.218C120.747 111.213 119.494 110.717 117.981 110.717C116.468 110.717 115.228 111.213 114.248 112.218C113.268 113.21 112.772 114.438 112.772 115.901C112.772 117.352 113.268 118.568 114.26 119.572C115.252 120.577 116.505 121.073 118.018 121.073C119.531 121.073 120.771 120.577 121.751 119.572C122.731 118.58 123.227 117.352 123.227 115.889C123.227 114.45 122.731 113.222 121.739 112.218ZM100.271 122.177L97.0712 117.303L91.6268 117.303L91.6268 122.177L90.1261 122.177L90.1261 109.626L97.4929 109.626C99.1299 109.626 99.7252 110.048 100.618 110.878C101.3 111.523 101.648 112.354 101.648 113.384C101.648 114.388 101.313 115.194 100.655 115.827C99.9981 116.447 99.7872 116.856 98.6959 117.042L102.119 122.164L100.271 122.164L100.271 122.177ZM99.1672 115.331C99.7997 114.859 100.122 114.227 100.122 113.408C100.122 112.627 99.8245 112.019 99.2168 111.585C98.6091 111.151 98.4354 110.928 97.3813 110.928L91.6268 110.928L91.6268 116.013L97.3565 116.013C98.3734 116.025 98.5347 115.79 99.1672 115.331ZM75.8639 117.749L70.9899 117.749L70.9899 122.177L69.4893 122.177L69.4893 109.626L76.1119 109.626C77.6373 109.626 78.183 109.986 79.0884 110.705C79.9937 111.424 80.4402 112.404 80.4402 113.644C80.4402 114.946 79.9441 115.951 78.952 116.67C77.935 117.389 77.3521 117.749 75.8639 117.749ZM77.9474 111.635C77.3025 111.164 77.0917 110.928 75.9879 110.928L70.9775 110.928L70.9775 116.447L75.9135 116.447C77.0172 116.447 77.2405 116.199 77.9102 115.69C78.5799 115.182 78.9023 114.5 78.9023 113.657C78.9023 112.788 78.5923 112.119 77.9474 111.635Z" fill="#3EA5D4"/>
    <path fill-rule="evenodd" clip-rule="evenodd" d="M34.551 76.4751C34.9851 74.6892 36.5849 73.4242 38.4204 73.4242L38.4328 73.4242C40.2311 73.4366 41.8186 74.5776 42.4014 76.2766L47.077 92.0271L47.1638 92.0271L51.8393 76.2766C52.4346 74.59 54.0221 73.449 55.808 73.4242C55.8204 73.4242 55.8204 73.4242 55.8328 73.4242C57.6683 73.4242 59.2681 74.6892 59.7022 76.4751L63.398 98.625C63.4104 98.7366 63.4104 98.8482 63.4104 98.9598C63.4104 99.0714 63.4104 99.1831 63.398 99.2947C63.398 99.3319 63.398 99.3691 63.398 99.4063C63.398 100.919 62.1702 102.16 60.6447 102.16C60.6075 102.16 60.5703 102.16 60.5331 102.16C58.5116 102.16 57.7179 101.242 57.445 99.3815L55.1507 83.2217L55.039 83.2217L50.3139 99.828C49.979 101.18 48.7637 102.135 47.3746 102.135C47.3002 102.135 47.2258 102.135 47.139 102.122C47.0646 102.135 46.9778 102.135 46.9034 102.135C45.5143 102.135 44.2989 101.18 43.9641 99.828L39.1893 83.2217L39.1149 83.2217L36.7586 99.3815C36.4857 101.229 35.692 102.16 33.6705 102.16C33.6333 102.16 33.5961 102.16 33.5589 102.16C32.0458 102.16 30.8056 100.932 30.8056 99.4063C30.8056 99.3691 30.8056 99.3319 30.8056 99.2947C30.7932 99.1831 30.7932 99.0714 30.7932 98.9598C30.7932 98.8482 30.7932 98.7366 30.8056 98.625L34.551 76.4751Z" fill="white"/>
    <path fill-rule="evenodd" clip-rule="evenodd" d="M71.2734 88.6662L63.7702 78.0997C63.4106 77.5789 63.2122 76.9588 63.2122 76.3263C63.2122 76.3263 63.2122 76.3263 63.2122 76.3139C63.2122 76.2891 63.2122 76.2643 63.2122 76.2394C63.2122 74.6768 64.4772 73.4118 66.0398 73.4118C66.0522 73.4118 66.0646 73.4118 66.077 73.4118C66.0894 73.4118 66.1142 73.4118 66.1266 73.4118C67.0692 73.4118 67.9497 73.8583 68.4954 74.6272L74.2499 82.8621L79.9672 74.5652C80.5129 73.8087 81.3934 73.3498 82.3236 73.3498C82.3484 73.3498 82.3608 73.3498 82.3856 73.3498C82.4228 73.3498 82.46 73.3498 82.4972 73.3498C84.0598 73.3498 85.3373 74.6148 85.3373 76.1898C85.3373 76.227 85.3373 76.2767 85.3373 76.3139C85.3373 76.9464 85.1388 77.5665 84.7792 78.0997L77.2636 88.6662L77.2636 99.2699C77.2636 99.3195 77.2636 99.3815 77.2636 99.4435C77.2636 100.957 76.0358 102.184 74.5227 102.184C74.4483 102.184 74.3615 102.184 74.2871 102.172C74.2127 102.184 74.1259 102.184 74.0515 102.184C72.5384 102.184 71.2982 100.957 71.2982 99.4311C71.2982 99.3815 71.2982 99.3319 71.2982 99.2699L71.2734 88.6662Z" fill="white"/>
    <path fill-rule="evenodd" clip-rule="evenodd" d="M84.2583 96.1937C85.9699 96.1937 87.3591 97.5829 87.3591 99.2945C87.3591 101.006 85.9699 102.395 84.2583 102.395C82.5466 102.395 81.1575 101.006 81.1575 99.2945C81.1575 97.5829 82.5466 96.1937 84.2583 96.1937Z" fill="white"/>
    <path fill-rule="evenodd" clip-rule="evenodd" d="M108.069 77.1569C108.069 77.219 108.069 77.281 108.069 77.343C108.069 78.8312 106.89 80.0466 105.415 80.0962C103.777 80.0962 102.525 78.8808 100.131 78.8808C98.4198 78.8808 96.8696 79.7862 96.8696 81.4604C96.8696 85.5407 110.14 82.9239 110.14 93.1679C110.14 98.848 105.452 102.383 99.9701 102.383C96.9192 102.383 90.2717 101.651 90.2717 97.9302C90.2717 97.8682 90.2717 97.8186 90.2717 97.7566C90.2717 96.2932 91.4623 95.1026 92.9257 95.1026C94.786 95.1026 97.0184 96.6528 99.598 96.6528C102.178 96.6528 103.641 95.177 103.641 93.2299C103.641 88.5419 90.3833 91.3696 90.3833 82.1549C90.433 76.6237 95.0093 73.1635 100.268 73.1635C102.512 73.1759 108.069 74.0192 108.069 77.1569Z" fill="white"/>
    <path fill-rule="evenodd" clip-rule="evenodd" d="M113.466 76.5121C113.466 74.8627 114.805 73.5356 116.442 73.5356C118.092 73.5356 119.419 74.8751 119.419 76.5121L119.419 99.0589C119.419 100.708 118.079 102.035 116.442 102.035C114.793 102.035 113.466 100.696 113.466 99.0589L113.466 76.5121Z" fill="white"/>
    <path fill-rule="evenodd" clip-rule="evenodd" d="M141.419 96.6778C141.518 96.6654 141.63 96.653 141.741 96.653C143.143 96.653 144.284 97.7939 144.284 99.1954C144.284 99.2202 144.284 99.2574 144.284 99.2822C144.185 100.758 142.969 101.899 141.493 101.899C141.469 101.899 141.444 101.899 141.431 101.899L125.83 101.899C123.734 101.899 122.494 100.684 122.494 99.0341C122.506 98.2032 122.791 97.3971 123.287 96.7274L136.086 78.8685L125.644 78.8685C125.569 78.8685 125.495 78.881 125.421 78.881C124.031 78.881 122.915 77.7524 122.915 76.3758C122.915 76.3634 122.915 76.3385 122.915 76.3261C122.94 74.8379 124.143 73.6349 125.644 73.6225L140.179 73.6225C140.303 73.6101 140.427 73.5977 140.551 73.5977C142.151 73.5977 143.465 74.8751 143.503 76.475C143.478 77.3927 143.18 78.2857 142.634 79.0174L129.91 96.6778L141.419 96.6778Z" fill="white"/>
    <path fill-rule="evenodd" clip-rule="evenodd" d="M147.335 77.1073C147.335 75.123 148.327 73.6596 150.435 73.6596L160.27 73.6596C160.332 73.6596 160.394 73.6472 160.456 73.6472C161.919 73.6472 163.098 74.8253 163.098 76.2888C163.098 76.326 163.098 76.3632 163.098 76.388C163.098 76.4004 163.098 76.4252 163.098 76.4376C163.098 77.9258 161.895 79.1288 160.406 79.1288C160.357 79.1288 160.32 79.1288 160.27 79.1288L153.288 79.1288L153.288 84.9329L159.799 84.9329C159.873 84.9329 159.947 84.9205 160.022 84.9205C161.498 84.9205 162.701 86.1235 162.701 87.5994C162.701 87.6366 162.701 87.6738 162.701 87.7234C162.701 89.2364 161.473 90.4642 159.96 90.4642C159.91 90.4642 159.861 90.4642 159.799 90.4642L153.288 90.4642L153.288 96.5164L160.63 96.5164C160.692 96.5164 160.754 96.504 160.816 96.504C162.279 96.504 163.457 97.6821 163.457 99.1456C163.457 99.1828 163.457 99.22 163.457 99.2448C163.457 99.2572 163.457 99.282 163.457 99.2944C163.457 100.783 162.254 101.986 160.766 101.986C160.716 101.986 160.679 101.986 160.63 101.986L150.373 101.986C150.324 101.986 150.262 101.986 150.212 101.986C148.612 101.986 147.322 100.683 147.322 99.096C147.322 99.0712 147.322 99.0464 147.322 99.0216L147.335 77.1073Z" fill="white"/>
    <defs>
        <radialGradient id="paint0_radial_21_2128" cx="0" cy="0" r="1" gradientUnits="userSpaceOnUse" gradientTransform="translate(149.451 42.3115) scale(66.0166 66.0166)">
            <stop stop-color="#007FAF"/>
            <stop offset="1" stop-color="#000923"/>
        </radialGradient>
    </defs>
</svg>
