<svg width="192" height="164" viewBox="0 0 192 164" fill="none" xmlns="http://www.w3.org/2000/svg">
    <path d="M241.227 1.46473L223.767 206.271L264.129 4.72353L225.356 206.583L286.564 10.3583L226.903 207.059L308.287 18.3074L228.393 207.694L329.061 28.4836L229.808 208.482L348.657 40.7756L231.132 209.413L366.86 55.0485L232.353 210.477L383.473 71.146L233.455 211.663L398.311 88.8918L234.427 212.958L411.213 108.091L235.259 214.348L422.038 128.535L235.941 215.816L430.666 149.997L236.465 217.348L437.004 172.244L236.827 218.927L440.982 195.032L237.021 220.534L442.556 218.11L237.047 222.153L441.708 241.227L236.903 223.766L438.45 264.128L236.591 225.355L432.815 286.564L236.115 226.903L424.866 308.287L235.48 228.392L414.69 329.06L234.692 229.807L402.398 348.656L233.761 231.132L388.125 366.86L232.697 232.352L372.027 383.472L231.511 233.454L354.282 398.311L230.216 234.426L335.082 411.213L228.826 235.258L314.639 422.038L227.358 235.94L293.177 430.666L225.826 236.464L270.93 437.004L224.247 236.826L248.142 440.982L222.64 237.021L225.064 442.556L221.021 237.046L201.947 441.709L219.408 236.902L179.046 438.45L217.819 236.59L156.611 432.815L216.271 236.114L134.887 424.866L214.782 235.479L114.114 414.69L213.367 234.692L94.5179 402.398L212.042 233.761L76.3142 388.125L210.822 232.696L59.7021 372.027L209.72 231.51L44.8636 354.281L208.747 230.215L31.9614 335.082L207.916 228.826L21.1368 314.639L207.234 227.357L12.5083 293.176L206.71 225.825L6.17055 270.929L206.348 224.247L2.19295 248.142L206.154 222.639L0.619066 225.063L206.128 221.02L1.46618 201.946L206.272 219.407L4.72497 179.045L206.584 217.818L10.3598 156.61L207.06 216.271L18.3088 134.886L207.695 214.781L28.485 114.113L208.482 213.366L40.7769 94.5168L209.413 212.042L55.0497 76.313L210.478 210.821L71.1472 59.7008L211.664 209.719L88.893 44.8623L212.959 208.747L108.093 31.9601L214.348 207.915L128.536 21.1354L215.817 207.233L149.998 12.5069L217.349 206.709L172.245 6.16912L218.927 206.347L195.033 2.1915L220.535 206.153L218.111 0.617614L222.154 206.127L241.227 1.46473Z" fill="url(#paint0_radial_18_1139)"/>
    <path d="M233.356 0.903828L223.218 206.203L256.359 3.3429L224.817 206.458L278.981 8.17311L226.381 206.878L300.974 15.3415L227.892 207.46L322.098 24.7696L229.334 208.197L342.12 36.354L230.691 209.08L360.822 49.9679L231.949 210.1L377.998 65.4621L233.093 211.246L393.461 82.6668L234.111 212.505L407.04 101.394L234.991 213.864L418.588 121.437L235.725 215.307L427.977 142.578L236.304 216.82L435.105 164.584L236.722 218.384L439.894 187.215L236.974 219.984L442.29 210.223L237.057 221.601L442.269 233.355L236.971 223.218L439.83 256.358L236.716 224.817L435 278.981L236.295 226.381L427.832 300.974L235.714 227.892L418.404 322.098L234.977 229.334L406.819 342.12L234.094 230.691L393.205 360.822L233.074 231.948L377.711 377.998L231.928 233.092L360.507 393.461L230.669 234.11L341.78 407.04L229.31 234.991L321.736 418.588L227.866 235.725L300.595 427.977L226.354 236.304L278.589 435.105L224.79 236.721L255.958 439.894L223.19 236.973L232.951 442.291L221.573 237.056L209.819 442.269L219.956 236.97L186.815 439.83L218.357 236.715L164.193 435L216.793 236.295L142.2 427.832L215.282 235.713L121.077 418.404L213.84 234.977L101.054 406.819L212.483 234.094L82.3525 393.205L211.225 233.073L65.1763 377.711L210.081 231.927L49.7137 360.506L209.064 230.668L36.1342 341.78L208.183 229.309L24.5866 321.736L207.449 227.866L15.1974 300.595L206.87 226.354L8.06936 278.589L206.453 224.789L3.28071 255.958L206.201 223.19L0.883859 232.95L206.117 221.572L0.905096 209.818L206.204 219.955L3.34416 186.815L206.458 218.356L8.17435 164.193L206.879 216.793L15.3427 142.199L207.461 215.282L24.7708 121.076L208.197 213.839L36.3552 101.053L209.08 212.482L49.969 82.3515L210.1 211.225L65.4631 65.1752L211.246 210.081L82.6678 49.7126L212.506 209.063L101.394 36.1331L213.865 208.182L121.438 24.5854L215.308 207.449L142.579 15.1961L216.82 206.87L164.585 8.06812L218.385 206.452L187.216 3.27945L219.984 206.2L210.224 0.882591L221.601 206.117L233.356 0.903828Z" fill="url(#paint1_radial_18_1139)"/>
    <path d="M225.913 0.611206L222.677 206.135L248.985 2.27624L224.284 206.336L271.757 6.34386L225.861 206.704L293.979 12.7695L227.391 207.234L315.407 21.4827L228.857 207.922L335.807 32.388L230.243 208.759L354.955 45.3661L231.534 209.736L372.642 60.2746L232.716 210.843L388.674 76.9502L233.775 212.068L402.875 95.2102L234.701 213.396L415.089 114.855L235.483 214.814L425.183 135.668L236.112 216.306L433.047 157.423L236.582 217.856L438.593 179.88L236.888 219.446L441.761 202.794L237.025 221.059L442.517 225.914L236.993 222.678L440.852 248.986L236.793 224.285L436.784 271.758L236.425 225.862L430.359 293.98L235.894 227.392L421.645 315.408L235.207 228.858L410.74 335.808L234.37 230.244L397.762 354.957L233.392 231.535L382.854 372.644L232.285 232.717L366.178 388.676L231.061 233.776L347.918 402.876L229.732 234.702L328.274 415.091L228.314 235.484L307.46 425.185L226.822 236.113L285.706 433.048L225.273 236.583L263.248 438.594L223.683 236.889L240.334 441.763L222.069 237.026L217.215 442.518L220.45 236.994L194.143 440.853L218.844 236.793L171.371 436.786L217.267 236.426L149.149 430.36L215.737 235.895L127.721 421.647L214.271 235.208L107.321 410.741L212.885 234.37L88.1724 397.763L211.594 233.393L70.4855 382.855L210.412 232.286L54.4537 366.179L209.352 231.062L40.2529 347.919L208.427 229.733L28.0385 328.275L207.645 228.315L17.9445 307.461L207.015 226.823L10.0813 285.707L206.545 225.274L4.53521 263.249L206.24 223.684L1.36691 240.335L206.103 222.07L0.611145 217.215L206.134 220.451L2.27617 194.143L206.335 218.845L6.34378 171.372L206.703 217.268L12.7694 149.15L207.234 215.738L21.4826 127.722L207.921 214.272L32.3879 107.321L208.758 212.886L45.3659 88.1728L209.736 211.595L60.2743 70.4858L210.843 210.413L76.9499 54.454L212.067 209.353L95.2098 40.2531L213.396 208.427L114.854 28.0387L214.813 207.646L135.668 17.9446L216.305 207.016L157.422 10.0814L217.855 206.546L179.88 4.53529L219.445 206.241L202.794 1.36697L221.059 206.103L225.913 0.611206Z" fill="url(#paint2_radial_18_1139)"/>
    <defs>
        <radialGradient id="paint0_radial_18_1139" cx="0" cy="0" r="1" gradientUnits="userSpaceOnUse" gradientTransform="translate(221.564 221.565) rotate(91.1277) scale(220.996 220.996)">
            <stop stop-color="#01ABD8"/>
            <stop offset="1" stop-color="#01ABD8" stop-opacity="0"/>
        </radialGradient>
        <radialGradient id="paint1_radial_18_1139" cx="0" cy="0" r="1" gradientUnits="userSpaceOnUse" gradientTransform="translate(221.564 221.565) rotate(91.1277) scale(220.996 220.996)">
            <stop stop-color="#01ABD8"/>
            <stop offset="1" stop-color="#01ABD8" stop-opacity="0"/>
        </radialGradient>
        <radialGradient id="paint2_radial_18_1139" cx="0" cy="0" r="1" gradientUnits="userSpaceOnUse" gradientTransform="translate(221.564 221.565) rotate(91.1277) scale(220.996 220.996)">
            <stop stop-color="#01ABD8"/>
            <stop offset="1" stop-color="#01ABD8" stop-opacity="0"/>
        </radialGradient>
    </defs>
</svg>
